<mxfile host="Electron" agent="Mozilla/5.0 (X11; Linux x86_64) AppleWebKit/537.36 (KHTML, like Gecko) draw.io/26.1.1 Chrome/132.0.6834.210 Electron/34.3.3 Safari/537.36" version="26.1.1">
  <diagram name="Page-1" id="-oxwu8x30tuhtqJhb2ir">
    <mxGraphModel dx="993" dy="568" grid="1" gridSize="10" guides="1" tooltips="1" connect="1" arrows="1" fold="1" page="1" pageScale="1" pageWidth="827" pageHeight="583" math="0" shadow="0">
      <root>
        <mxCell id="0" />
        <mxCell id="1" parent="0" />
        <mxCell id="Psostr931wlDsBuMMPds-2" value="&lt;b&gt;Initialisation Phase&lt;/b&gt;" style="rounded=0;whiteSpace=wrap;html=1;fillColor=#d5e8d4;strokeColor=#82b366;" vertex="1" parent="1">
          <mxGeometry x="130" y="320" width="160" height="40" as="geometry" />
        </mxCell>
        <mxCell id="Psostr931wlDsBuMMPds-3" value="&lt;b&gt;Experiment Phase&lt;/b&gt;" style="rounded=0;whiteSpace=wrap;html=1;fillColor=#fff2cc;strokeColor=#d6b656;" vertex="1" parent="1">
          <mxGeometry x="290" y="320" width="246" height="40" as="geometry" />
        </mxCell>
        <mxCell id="Psostr931wlDsBuMMPds-4" value="&lt;b&gt;De-Initialisation Phase&lt;/b&gt;" style="rounded=0;whiteSpace=wrap;html=1;fillColor=#f8cecc;strokeColor=#b85450;" vertex="1" parent="1">
          <mxGeometry x="536" y="320" width="160" height="40" as="geometry" />
        </mxCell>
        <mxCell id="Psostr931wlDsBuMMPds-5" value="&lt;b&gt;gui_task&lt;/b&gt;&amp;nbsp;(alloc: 9216 bytes, priority 0, core 1)" style="rounded=1;whiteSpace=wrap;html=1;fillColor=#f5f5f5;fontColor=#333333;strokeColor=#666666;align=left;" vertex="1" parent="1">
          <mxGeometry x="130" y="110" width="566" height="20" as="geometry" />
        </mxCell>
        <mxCell id="Psostr931wlDsBuMMPds-6" value="&lt;b&gt;i2c_task&amp;nbsp;&lt;/b&gt;(alloc: 4096 bytes, priority 5)" style="rounded=1;whiteSpace=wrap;html=1;fillColor=#f5f5f5;fontColor=#333333;strokeColor=#666666;align=left;" vertex="1" parent="1">
          <mxGeometry x="130" y="140" width="566" height="20" as="geometry" />
        </mxCell>
        <mxCell id="Psostr931wlDsBuMMPds-7" value="&lt;b&gt;ota_task &lt;/b&gt;(alloc: 8192 bytes)" style="rounded=1;whiteSpace=wrap;html=1;fillColor=#e1d5e7;strokeColor=#9673a6;align=left;" vertex="1" parent="1">
          <mxGeometry x="130" y="200" width="156" height="20" as="geometry" />
        </mxCell>
        <mxCell id="Psostr931wlDsBuMMPds-9" value="&lt;b&gt;espnow_task &lt;/b&gt;(alloc: 4096 bytes, priority 4)" style="rounded=1;whiteSpace=wrap;html=1;fillColor=#dae8fc;strokeColor=#6c8ebf;align=left;" vertex="1" parent="1">
          <mxGeometry x="286" y="230" width="250" height="20" as="geometry" />
        </mxCell>
        <mxCell id="Psostr931wlDsBuMMPds-10" value="&lt;b&gt;ga_task &lt;/b&gt;(alloc: 8192 bytes, priority 3, core 1)" style="rounded=1;whiteSpace=wrap;html=1;fillColor=#dae8fc;strokeColor=#6c8ebf;align=left;" vertex="1" parent="1">
          <mxGeometry x="286" y="260" width="250" height="20" as="geometry" />
        </mxCell>
        <mxCell id="Psostr931wlDsBuMMPds-11" value="&lt;b&gt;pololu_heartbeat_task &lt;/b&gt;(alloc: 2048 bytes, priority 5)" style="rounded=1;whiteSpace=wrap;html=1;fillColor=#f5f5f5;fontColor=#333333;strokeColor=#666666;align=left;" vertex="1" parent="1">
          <mxGeometry x="130" y="170" width="566" height="20" as="geometry" />
        </mxCell>
        <mxCell id="Psostr931wlDsBuMMPds-12" value="&lt;b&gt;write_task &lt;/b&gt;(alloc: 4096 bytes, priority 1)" style="rounded=1;whiteSpace=wrap;html=1;fillColor=#CCFFFF;strokeColor=#9673a6;align=left;" vertex="1" parent="1">
          <mxGeometry x="286" y="290" width="410" height="20" as="geometry" />
        </mxCell>
      </root>
    </mxGraphModel>
  </diagram>
</mxfile>
